<svg width="100%" height="100%" viewBox="0 0 150 150" fill="white" version="1.1" xmlns="http://www.w3.org/2000/svg" xmlns:xlink="http://www.w3.org/1999/xlink" xml:space="preserve" xmlns:serif="http://www.serif.com/" style="fill-rule:evenodd;clip-rule:evenodd;stroke-linejoin:round;stroke-miterlimit:2;">
    <g transform="matrix(2.18182,0,0,2.18182,-34.0909,-34.0909)">
        <path d="M35.84,15.625C24.744,15.625 15.625,24.731 15.625,35.84L15.625,64.16C15.625,75.256 24.731,84.375 35.84,84.375L64.16,84.375C75.256,84.375 84.375,75.269 84.375,64.16L84.375,35.84C84.375,24.744 75.269,15.625 64.16,15.625L35.84,15.625ZM35.84,21.875L64.16,21.875C71.887,21.875 78.125,28.113 78.125,35.84L78.125,64.16C78.125,71.887 71.887,78.125 64.16,78.125L35.84,78.125C28.113,78.125 21.875,71.887 21.875,64.16L21.875,35.84C21.875,28.113 28.113,21.875 35.84,21.875ZM68.457,28.711C66.882,28.711 65.625,29.968 65.625,31.543C65.625,33.118 66.882,34.375 68.457,34.375C70.032,34.375 71.289,33.118 71.289,31.543C71.289,29.968 70.032,28.711 68.457,28.711ZM50,31.25C39.685,31.25 31.25,39.685 31.25,50C31.25,60.315 39.685,68.75 50,68.75C60.315,68.75 68.75,60.315 68.75,50C68.75,39.685 60.315,31.25 50,31.25ZM50,37.5C56.946,37.5 62.5,43.054 62.5,50C62.5,56.946 56.946,62.5 50,62.5C43.054,62.5 37.5,56.946 37.5,50C37.5,43.054 43.054,37.5 50,37.5Z" style="fill-rule:nonzero;"/>
    </g>
</svg>
