<svg width="100%" height="100%" viewBox="0 0 150 150" fill="white" version="1.1" xmlns="http://www.w3.org/2000/svg" xmlns:xlink="http://www.w3.org/1999/xlink" xml:space="preserve" xmlns:serif="http://www.serif.com/" style="fill-rule:evenodd;clip-rule:evenodd;stroke-linejoin:round;stroke-miterlimit:2;">
    <g transform="matrix(1.78571,0,0,1.78571,-14.2857,-14.2857)">
        <path d="M82,8L18,8C12.48,8 8,12.48 8,18L8,82C8,87.52 12.48,92 18,92L82,92C87.52,92 92,87.52 92,82L92,18C92,12.48 87.52,8 82,8ZM34,40L34,78L22,78L22,40L34,40ZM22,28.94C22,26.14 24.4,24 28,24C31.6,24 33.86,26.14 34,28.94C34,31.74 31.76,34 28,34C24.4,34 22,31.74 22,28.94ZM78,78L66,78L66,58C66,54 64,50 59,49.92L58.84,49.92C54,49.92 52,54.04 52,58L52,78L40,78L40,40L52,40L52,45.12C52,45.12 55.86,40 63.62,40C71.56,40 78,45.46 78,56.52L78,78Z"
              style="fill-rule:nonzero;"/>
    </g>
</svg>
