<svg width="100%" height="100%" viewBox="0 0 150 150" fill="white" version="1.1" xmlns="http://www.w3.org/2000/svg" xmlns:xlink="http://www.w3.org/1999/xlink" xml:space="preserve" xmlns:serif="http://www.serif.com/" style="fill-rule:evenodd;clip-rule:evenodd;stroke-linejoin:round;stroke-miterlimit:2;">
    <g transform="matrix(2,0,0,2,-25,-23.1521)">
        <path d="M50,12.5C29.285,12.5 12.5,29.285 12.5,50C12.5,66.565 23.242,80.627 38.147,85.583C40.027,85.925 40.71,84.778 40.71,83.777C40.71,82.886 40.674,80.53 40.662,77.405C30.225,79.663 28.027,72.375 28.027,72.375C26.318,68.042 23.865,66.882 23.865,66.882C20.459,64.563 24.121,64.612 24.121,64.612C27.881,64.88 29.858,68.469 29.858,68.469C33.203,74.207 38.635,72.546 40.771,71.594C41.113,69.165 42.09,67.517 43.152,66.577C34.827,65.637 26.074,62.415 26.074,48.047C26.074,43.945 27.539,40.601 29.932,37.976C29.553,37.036 28.259,33.215 30.298,28.052C30.298,28.052 33.447,27.051 40.613,31.897C43.604,31.067 46.814,30.652 50,30.64C53.186,30.652 56.396,31.067 59.387,31.897C66.553,27.051 69.69,28.052 69.69,28.052C71.741,33.215 70.459,37.036 70.068,37.976C72.473,40.601 73.914,43.945 73.914,48.047C73.914,62.451 65.149,65.613 56.799,66.553C58.142,67.7 59.338,69.995 59.338,73.486C59.338,78.503 59.302,82.544 59.302,83.777C59.302,84.778 59.973,85.95 61.877,85.583C76.77,80.615 87.5,66.565 87.5,50C87.5,29.285 70.715,12.5 50,12.5Z"/>
    </g>
</svg>
